#!OML:ASF H:\Terrain\Walking\May29\JustinRory\Justin.ASF
:FULLY-SPECIFIED
:DEGREES
1550
root 11.677350698602794 17.765445708582835 9.310398343313373 -167.63206986027944 -96.31809361277445 13.97871057884231 
lowerback 4.301041996007984 -2.5983890419161675 -9.82272255489022 
upperback 2.259837864271457 -3.912923433133732 0.6580489760479042 
thorax 0.758010499001996 -2.1282424351297404 6.322516407185628 
lowerneck -6.580769916167666 -9.133270459081835 -13.715849700598802 
upperneck 21.3751251497006 -13.74925864271457 8.719143193612773 
head 10.189332934131736 -7.258990618762475 3.6424496806387223 
rclavicle 8.061071656686626e-14 -1.6254115968063873e-14 
rhumerus -33.32039401197605 -18.958039321357283 -68.14663532934132 
rradius 32.21723113772455 
rwrist -16.678001796407187 
rhand -14.679286367265469 22.861188223552894 
rfingers 7.12502 
rthumb 11.468454091816367 -6.691113213572855 
lclavicle 8.061071656686626e-14 -1.6254115968063873e-14 
lhumerus -27.47493133732535 10.551127964071856 75.46022734530938 
lradius 28.42478522954092 
lwrist -7.23552632734531 
lhand -1.6618523952095812 40.285568063872255 
lfingers 7.12502 
lthumb 23.99420399201597 68.7686373253493 
rfemur -27.129835528942113 -4.773522954091816 14.93952612774451 
rtibia 29.517206586826347 
rfoot -10.373318962075848 -3.4868799401197594 
rtoes 1.3854474850299394 
lfemur -4.2314439121756475 2.1342628343313352 -25.61529461077844 
ltibia 23.95627105788423 
lfoot -16.670971656686625 -3.31120634730539 
ltoes 11.044561616766469 
1551
root 11.68021137724551 17.76505868263473 9.293087305389221 -167.5981377245509 -96.2025245508982 14.663143712574822 
lowerback 4.305451077844311 -2.6008786826347308 -9.840000179640718 
upperback 2.262346646706587 -3.9173430538922154 0.6595654670658683 
thorax 0.7602712694610779 -2.13093251497006 6.334010059880239 
lowerneck -6.546598634730541 -9.15656604790419 -13.729310838323352 
upperneck 21.368209580838325 -13.795137467065867 8.753425724550898 
head 10.189207784431138 -7.279622934131737 3.65114622754491 
rclavicle 8.044952694610779e-14 -1.625748862275449e-14 
rhumerus -33.319216766467065 -18.961883233532934 -68.15566107784431 
rradius 32.224792814371256 
rwrist -16.67461497005988 
rhand -14.651620838323353 22.86097964071856 
rfingers 7.12502 
rthumb 11.495135209580837 -6.689932335329342 
lclavicle 8.044952694610779e-14 -1.625748862275449e-14 
lhumerus -27.45593892215569 10.534969700598804 75.49081676646706 
lradius 28.423588023952096 
lwrist -7.2446716167664675 
lhand -1.6483832934131737 40.28202275449102 
lfingers 7.12502 
lthumb 24.007122155688624 68.76342215568863 
rfemur -27.117607185628742 -4.778252395209581 14.901625508982036 
rtibia 29.56982155688623 
rfoot -10.397030239520957 -3.5105161676646692 
rtoes 1.4045990419161671 
lfemur -4.261383712574849 2.16900473053892 -25.61035508982036 
ltibia 23.984214371257483 
lfoot -16.68305269461078 -3.256546227544911 
ltoes 10.984203473053892 
1552
root 11.683072055888223 17.764671656686627 9.27577626746507 -167.56420558882235 -96.08695548902196 15.347576846307362 
lowerback 4.309860159680639 -2.603368323353293 -9.857277804391217 
upperback 2.2648554291417167 -3.921762674650698 0.6610819580838323 
thorax 0.7625320399201597 -2.1336225948103795 6.34550371257485 
lowerneck -6.512427353293415 -9.179861636726546 -13.742771976047903 
upperneck 21.36129401197605 -13.841016291417164 8.78770825548902 
head 10.18908263473054 -7.3002552495009985 3.6598427744510973 
rclavicle 8.02883373253493e-14 -1.6260861277445108e-14 
rhumerus -33.31803952095809 -18.965727145708584 -68.1646868263473 
rradius 32.232354491017965 
rwrist -16.671228143712575 
rhand -14.623955309381238 22.860771057884232 
rfingers 7.12502 
rthumb 11.52181632734531 -6.688751457085829 
lclavicle 8.02883373253493e-14 -1.6260861277445108e-14 
lhumerus -27.43694650698603 10.518811437125748 75.52140618762475 
lradius 28.422390818363272 
lwrist -7.253816906187625 
lhand -1.6349141916167667 40.27847744510978 
lfingers 7.12502 
lthumb 24.02004031936128 68.75820698602794 
rfemur -27.105378842315368 -4.7829818363273455 14.863724890219562 
rtibia 29.62243652694611 
rfoot -10.420741516966068 -3.53415239520958 
rtoes 1.4237505988023949 
lfemur -4.291323512974051 2.203746626746505 -25.605415568862277 
ltibia 24.012157684630736 
lfoot -16.69513373253493 -3.201886107784432 
ltoes 10.923845329341319 
1553
root 11.685932734530937 17.764284630738523 9.258465229540917 -167.53027345309383 -95.97138642714572 16.032009980039902 
lowerback 4.314269241516966 -2.6058579640718564 -9.874555429141715 
upperback 2.2673642115768464 -3.9261822954091814 0.6625984491017964 
thorax 0.7647928103792415 -2.1363126746506986 6.356997365269461 
lowerneck -6.47825607185629 -9.203157225548901 -13.756233113772455 
upperneck 21.354378443113774 -13.886895115768462 8.821990786427145 
head 10.18895748502994 -7.32088756487026 3.6685393213572857 
rclavicle 8.012714770459082e-14 -1.626423393213573e-14 
rhumerus -33.316862275449104 -18.96957105788423 -68.1737125748503 
rradius 32.239916167664674 
rwrist -16.66784131736527 
rhand -14.596289780439122 22.8605624750499 
rfingers 7.12502 
rthumb 11.54849744510978 -6.687570578842315 
lclavicle 8.012714770459082e-14 -1.626423393213573e-14 
lhumerus -27.41795409181637 10.502653173652696 75.55199560878243 
lradius 28.421193612774452 
lwrist -7.262962195608782 
lhand -1.6214450898203592 40.27493213572854 
lfingers 7.12502 
lthumb 24.032958483033934 68.75299181636727 
rfemur -27.093150499001993 -4.78771127744511 14.825824271457085 
rtibia 29.675051497005988 
rfoot -10.444452794411177 -3.5577886227544897 
rtoes 1.4429021556886226 
lfemur -4.321263313373253 2.23848852295409 -25.60047604790419 
ltibia 24.04010099800399 
lfoot -16.707214770459082 -3.147225988023953 
ltoes 10.863487185628742 
